#!OML:ASF H:\Male1\Project 1\Capture day 1\Session 1\Male1.ASF
:FULLY-SPECIFIED
:DEGREES
182
root -6.02984 14.9375 4.8092 173.59 -77.4847 -166.293
lowerback 24.5356 0.511886 3.50813
upperback 13.0868 -0.0553773 2.35469
thorax 0.844584 -0.542201 0.549059
lowerneck -8.68093 3.64457 7.81277
upperneck -0.278641 4.11665 -3.9058
head 1.69682 1.95525 -2.45778
rclavicle 1.23246e-014 3.97569e-016
rhumerus -0.999674 1.46086 -72.4572
rradius 73.5432
rwrist -46.8789
rhand -1.99926 -7.53475
rfingers 7.12502
rthumb 23.6741 -36.0969
lclavicle 1.23246e-014 3.97569e-016
lhumerus -3.32385 -5.92353 69.4543
lradius 74.2544
lwrist 42.5745
lhand -10.2643 17.5446
lfingers 7.12502
lthumb 15.7291 46.9254
rfemur -27.9714 3.97505 26.1878
rtibia 37.1745
rfoot -19.2192 -13.5216
rtoes -26.8435
lfemur -37.0646 -7.09586 -16.1384
ltibia 56.9923
lfoot -18.0966 10.4249
ltoes -12.731
183
root -6.08652 14.9557 4.835 173.735 -76.8966 -166.453
lowerback 23.5765 0.307038 3.54681
upperback 12.6112 -0.243116 2.36168
thorax 0.766268 -0.600081 0.569643
lowerneck -9.22528 3.47073 7.56619
upperneck 0.947615 3.88205 -3.61081
head 2.17148 1.86242 -2.3214
rclavicle 7.35503e-015 3.37934e-015
rhumerus -1.94383 1.74397 -72.6753
rradius 73.3511
rwrist -46.9209
rhand -2.29669 -7.96256
rfingers 7.12502
rthumb 23.3888 -36.5614
lclavicle 7.35503e-015 3.37934e-015
lhumerus -4.6824 -5.65215 70.0382
lradius 74.4106
lwrist 41.6459
lhand -10.286 17.9871
lfingers 7.12502
lthumb 15.7082 47.3696
rfemur -27.4527 4.70793 26.0745
rtibia 36.6584
rfoot -19.376 -13.5866
rtoes -26.4141
lfemur -37.099 -8.61672 -15.4581
ltibia 56.2015
lfoot -18.001 10.3783
ltoes -16.4366
184
root -6.16983 14.9731 4.8702 174.52 -75.7994 -168.052
lowerback 23.2979 0.282106 3.41645
upperback 12.3874 -0.278643 2.19145
thorax 0.646281 -0.609295 0.466811
lowerneck -9.54898 3.28649 7.24758
upperneck 1.85591 3.63524 -3.04395
head 2.49465 1.76683 -2.08503
rclavicle 2.5842e-014 -1.31198e-014
rhumerus -2.73073 1.96521 -73.0368
rradius 72.9412
rwrist -46.8139
rhand -2.63002 -7.84589
rfingers 7.12502
rthumb 23.069 -36.485
lclavicle 2.5842e-014 -1.31198e-014
lhumerus -5.9312 -5.31882 70.5772
lradius 74.5602
lwrist 40.9704
lhand -10.1383 18.2351
lfingers 7.12502
lthumb 15.8505 47.6063
rfemur -25.9864 5.47179 25.7408
rtibia 36.1162
rfoot -19.5039 -13.3379
rtoes -26.4153
lfemur -35.964 -9.98696 -15.2228
ltibia 55.0708
lfoot -18.2762 10.2269
ltoes -17.917
185
root -6.24477 14.9867 4.90433 175.655 -75.0211 -169.635
lowerback 22.6913 0.164231 3.26869
upperback 12.0884 -0.422435 2.00702
thorax 0.600978 -0.660781 0.378746
lowerneck -9.84186 3.07107 6.60752
upperneck 2.64439 3.36349 -2.18289
head 2.75867 1.66426 -1.69523
rclavicle -4.96962e-015 2.48481e-014
rhumerus -3.57214 1.96842 -73.4684
rradius 72.6637
rwrist -46.643
rhand -2.72013 -7.89129
rfingers 7.12502
rthumb 22.9825 -36.5412
lclavicle -4.96962e-015 2.48481e-014
lhumerus -7.01333 -5.03016 71.0842
lradius 74.6352
lwrist 40.4914
lhand -9.95664 18.7443
lfingers 7.12502
lthumb 16.0254 48.1015
rfemur -24.902 5.90914 25.3007
rtibia 35.4808
rfoot -19.5528 -13.0283
rtoes -26.6129
lfemur -35.2889 -11.8488 -14.9253
ltibia 53.688
lfoot -18.5525 10.0235
ltoes -17.8213
186
root -6.31831 15.0026 4.93527 175.85 -74.0992 -170.297
lowerback 22.3179 0.105487 3.23055
upperback 11.7596 -0.463 1.88275
thorax 0.415668 -0.662745 0.27432
lowerneck -9.87763 2.77944 6.16474
upperneck 3.03873 2.99081 -1.55263
head 2.85429 1.5017 -1.42783
rclavicle -7.95139e-015 -1.82882e-014
rhumerus -4.54017 1.78993 -73.9135
rradius 72.5482
rwrist -46.3961
rhand -2.63097 -8.2788
rfingers 7.12502
rthumb 23.0681 -36.9181
lclavicle -7.95139e-015 -1.82882e-014
lhumerus -8.03908 -4.72629 71.5845
lradius 74.6755
lwrist 39.8604
lhand -9.6745 19.5947
lfingers 7.12502
lthumb 16.2971 48.9299
rfemur -23.7603 6.67278 25.1114
rtibia 34.7958
rfoot -19.5986 -12.8572
rtoes -26.8499
lfemur -34.5876 -14.2534 -14.1375
ltibia 52.1406
lfoot -18.962 9.49939
ltoes -13.868
187
root -6.40243 15.022 4.97678 174.489 -73.0446 -169.603
lowerback 22.1275 -0.00849447 3.59726
upperback 11.6058 -0.534724 1.85304
thorax 0.34115 -0.679341 0.0493354
lowerneck -9.74225 2.52715 5.77589
upperneck 3.0657 2.67586 -0.984788
head 2.80217 1.35995 -1.18961
rclavicle -2.92213e-014 4.77083e-015
rhumerus -5.28359 1.70893 -74.3027
rradius 72.4113
rwrist -46.0976
rhand -2.61186 -8.85888
rfingers 7.12502
rthumb 23.0864 -37.4959
lclavicle -2.92213e-014 4.77083e-015
lhumerus -8.86415 -4.16076 72.0375
lradius 74.7214
lwrist 38.9458
lhand -9.54831 20.1887
lfingers 7.12502
lthumb 16.4186 49.5139
rfemur -22.2729 7.32075 25.3193
rtibia 34.0386
rfoot -19.5996 -12.5095
rtoes -27.4204
lfemur -33.6516 -17.5697 -12.7526
ltibia 50.3936
lfoot -19.0898 9.65516
ltoes -16.3455
